<svg xmlns="http://www.w3.org/2000/svg" viewBox="0 0 256 256"><path fill="currentColor" d="M182.91,20h-94.2c-6.63,0-12,5.37-12,12v77.19c0,6.63,5.37,12,12,12h26.97l-12.37,31.34c-22.89.14-41.47,18.8-41.47,41.72s18.72,41.74,41.73,41.74,41.74-18.73,41.74-41.74c0-14.58-7.53-27.44-18.89-34.9l15.06-38.17h41.43c6.63,0,12-5.37,12-12V32c0-6.63-5.37-12-12-12ZM103.57,212c-9.78,0-17.73-7.96-17.73-17.74s7.95-17.73,17.73-17.73,17.74,7.95,17.74,17.73-7.96,17.74-17.74,17.74ZM170.91,44v8.1h-70.2v-8.1h70.2ZM100.71,97.19v-21.09h70.2v21.09h-70.2Z"/></svg>
