<?xml version="1.0" encoding="UTF-8"?><svg id="uuid-2f002783-a74b-46ac-905f-a02eb94597d1" xmlns="http://www.w3.org/2000/svg" viewBox="0 0 256 256"><path d="M128,20c-25.1,0-48.24,8.61-66.6,23.03-.4.29-.79.59-1.15.92-24.53,19.81-40.25,50.12-40.25,84.04,0,24.82,8.42,47.71,22.55,65.97.43.68.93,1.31,1.49,1.88,19.82,24.48,50.09,40.15,83.96,40.15,59.55,0,108-48.45,108-108S187.55,20,128,20ZM191.78,73.43c3.8,19.06-1.25,39.61-13.75,55.41-.36.46-.75.89-1.12,1.34.03-.71.05-1.42.05-2.14,0,0,0,0,0-.01,0,0,0,0,0,0,0,0,0,0,0,0,0,0,0-.01,0-.02,0-27.44-11.87-51.95-33.42-69.01-7.79-6.16-16.45-10.97-25.58-14.36,3.29-.39,6.64-.62,10.04-.62,25.5,0,48.36,11.43,63.78,29.43ZM102.74,129.33c0-.45-.04-.89-.04-1.34,0-13.34,10.45-24.27,23.59-25.07.51-.01,1.02-.04,1.54-.04.04,0,.09,0,.13,0,13.35.07,24.27,10.6,24.97,23.8,0,.44.04.88.04,1.33,0,13.41-10.56,24.4-23.81,25.09-.3,0-.6.02-.9.02-.14,0-.28.01-.42.01-13.41,0-24.4-10.56-25.09-23.8ZM73.73,63.96c18.91-3.63,39.25,1.44,54.91,13.84.46.37.9.75,1.35,1.13-.72-.03-1.44-.05-2.16-.05-.28,0-.55.02-.83.02-27.12.24-51.32,12.08-68.2,33.43-6.09,7.7-10.87,16.27-14.24,25.28-.36-3.15-.57-6.35-.57-9.6,0-25.64,11.56-48.62,29.73-64.04ZM63.8,182.09c-3.62-18.9,1.45-39.22,13.83-54.87.37-.46.75-.9,1.13-1.35-.03.68-.05,1.37-.05,2.06,0,.01,0,.03,0,.04,0,0,0,.02,0,.03,0,0,0,0,0,.01,0,.01,0,.03,0,.04,0,27.42,11.86,51.92,33.39,68.97,7.82,6.19,16.52,11.01,25.69,14.4-3.21.37-6.47.59-9.78.59-25.73,0-48.78-11.64-64.2-29.91ZM182.35,191.98c-19.04,3.78-39.57-1.27-55.35-13.77-.46-.37-.9-.75-1.35-1.13.71.03,1.42.05,2.13.05,0,0,.02,0,.03,0h.05c27.43,0,51.93-11.86,68.98-33.4,6.26-7.9,11.12-16.71,14.51-25.98.41,3.36.65,6.78.65,10.25,0,25.6-11.53,48.56-29.65,63.98Z"/></svg>